<svg height="13" viewBox="0 0 8 13" width="8" xmlns="http://www.w3.org/2000/svg"><path d="m1.5 10c.82842712 0 1.5.6715729 1.5 1.5s-.67157288 1.5-1.5 1.5-1.5-.6715729-1.5-1.5.67157288-1.5 1.5-1.5zm5 0c.82842712 0 1.5.6715729 1.5 1.5s-.67157288 1.5-1.5 1.5-1.5-.6715729-1.5-1.5.67157288-1.5 1.5-1.5zm-5-5c.82842712 0 1.5.67157288 1.5 1.5s-.67157288 1.5-1.5 1.5-1.5-.67157288-1.5-1.5.67157288-1.5 1.5-1.5zm5 0c.82842712 0 1.5.67157288 1.5 1.5s-.67157288 1.5-1.5 1.5-1.5-.67157288-1.5-1.5.67157288-1.5 1.5-1.5zm-5-5c.82842712 0 1.5.67157288 1.5 1.5s-.67157288 1.5-1.5 1.5-1.5-.67157288-1.5-1.5.67157288-1.5 1.5-1.5zm5 0c.82842712 0 1.5.67157288 1.5 1.5s-.67157288 1.5-1.5 1.5-1.5-.67157288-1.5-1.5.67157288-1.5 1.5-1.5z" fill="#7f7f7f" fill-rule="evenodd"/></svg>