<svg width="10px" height="33px" viewBox="0 0 10 33" version="1.1" xmlns="http://www.w3.org/2000/svg" xmlns:xlink="http://www.w3.org/1999/xlink">
    <g id="Artboard" fill="#7E7E7E">
        <path d="M1,0 C1.55228475,-1.01453063e-16 2,0.44771525 2,1 L2,32 C2,32.5522847 1.55228475,33 1,33 C0.44771525,33 6.76353751e-17,32.5522847 0,32 L0,1 C-6.76353751e-17,0.44771525 0.44771525,1.01453063e-16 1,0 Z M5,0 C5.55228475,-1.01453063e-16 6,0.44771525 6,1 L6,32 C6,32.5522847 5.55228475,33 5,33 C4.44771525,33 4,32.5522847 4,32 L4,1 C4,0.44771525 4.44771525,1.01453063e-16 5,0 Z M9,0 C9.55228475,-1.01453063e-16 10,0.44771525 10,1 L10,32 C10,32.5522847 9.55228475,33 9,33 C8.44771525,33 8,32.5522847 8,32 L8,1 C8,0.44771525 8.44771525,1.01453063e-16 9,0 Z" id="Combined-Shape"></path>
    </g>
</svg>